<?xml version="1.0" encoding="UTF-8"?><svg id="Layer_2" xmlns="http://www.w3.org/2000/svg" viewBox="0 0 1000 1000"><defs><style>.cls-1{fill:#fff;}.cls-2{fill:#191919;}</style></defs><g id="Layer_1-2"><rect class="cls-2" width="1000" height="1000"/><path class="cls-1" d="M412.99,465.98v250.98h-100.95V288.62h96.49v72.78h5.02c9.85-23.98,25.61-43.04,47.27-57.17,21.66-14.13,48.47-21.19,80.45-21.19,29.56,0,55.36,6.32,77.38,18.96,22.03,12.64,39.13,30.95,51.31,54.94,12.17,23.98,18.17,53.08,17.99,87.29v272.73h-100.95V459.84c0-28.63-7.39-51.03-22.17-67.21-14.78-16.17-35.18-24.26-61.21-24.26-17.66,0-33.32,3.86-46.99,11.57-13.66,7.72-24.36,18.82-32.07,33.32-7.72,14.5-11.57,32.07-11.57,52.71Z"/></g></svg>